<svg width="91" height="92" viewBox="0 0 91 92" fill="none" xmlns="http://www.w3.org/2000/svg">
<path d="M19.3591 72.1409C16.0874 68.8691 18.2574 62.0002 16.5921 57.9754C14.8658 53.8031 8.53125 50.4451 8.53125 45.9999C8.53125 41.5547 14.8659 38.1968 16.5922 34.0245C18.2574 29.9997 16.0874 23.1309 19.3591 19.8591C22.6309 16.5874 29.4998 18.7574 33.5246 17.0921C37.6969 15.3658 41.0549 9.03125 45.5001 9.03125C49.9453 9.03125 53.3032 15.3659 57.4755 17.0922C61.5003 18.7574 68.3691 16.5874 71.6409 19.8591C74.9126 23.1309 72.7426 29.9998 74.4079 34.0246C76.1342 38.1969 82.4688 41.5549 82.4688 46.0001C82.4688 50.4453 76.1341 53.8032 74.4078 57.9755C72.7426 62.0003 74.9126 68.8691 71.6409 72.1409C68.3691 75.4126 61.5002 73.2426 57.4754 74.9079C53.3031 76.6342 49.9451 82.9688 45.4999 82.9688C41.0547 82.9688 37.6968 76.6341 33.5245 74.9078C29.4997 73.2426 22.6309 75.4126 19.3591 72.1409Z" stroke="black" stroke-width="2" stroke-linecap="round" stroke-linejoin="round"/>
<path d="M61.1406 37.4688L40.2863 57.375L29.8594 47.4219" stroke="black" stroke-width="2" stroke-linecap="round" stroke-linejoin="round"/>
</svg>
